<svg xmlns="http://www.w3.org/2000/svg" xmlns:xlink="http://www.w3.org/1999/xlink" width="42" height="42" id="project"><defs><linearGradient id="b" x1="949.87" x2="974.39" y1="518.014" y2="544.657" gradientTransform="translate(-1272.559 316.47) scale(1.34562)" gradientUnits="userSpaceOnUse" xlink:href="#a"></linearGradient><linearGradient id="a"><stop offset="0" stop-color="#24f7bc"></stop><stop offset="1" stop-color="#24c4fc"></stop></linearGradient></defs><g transform="translate(0 -1010.362)"><rect width="42" height="42" y="1010.362" fill="url(#b)" rx="8.876" ry="8.876"></rect><path style="line-height:normal;text-indent:0;text-align:start;text-decoration-line:none;text-decoration-style:solid;text-decoration-color:#000;text-transform:none;block-progression:tb;isolation:auto;mix-blend-mode:normal" fill="#fff" d="M21 1019.356c-2.468 0-4.478 2.022-4.478 4.5s2.01 4.5 4.478 4.5 4.477-2.022 4.477-4.5-2.009-4.5-4.477-4.5zm0 1a3.48 3.48 0 0 1 3.477 3.5 3.48 3.48 0 0 1-3.477 3.5 3.482 3.482 0 0 1-3.478-3.5c0-1.94 1.554-3.5 3.478-3.5zm-8.5 2.326c-1.962 0-3.56 1.615-3.56 3.588s1.598 3.588 3.56 3.588c1.963 0 3.56-1.615 3.56-3.588s-1.597-3.588-3.56-3.588zm0 1c1.418 0 2.56 1.15 2.56 2.588a2.567 2.567 0 0 1-2.56 2.588 2.567 2.567 0 0 1-2.56-2.588 2.567 2.567 0 0 1 2.56-2.588zm18.168 2.805a4.98 4.98 0 0 0-3.972 2.502c-.206.36-.346.738-.456 1.121-.187-.105-.379-.2-.578-.285a5.934 5.934 0 0 0-2.324-.469H18.66a5.908 5.908 0 0 0-3.484 1.135 4.61 4.61 0 0 0-.875-.092h-3.602c-2.597 0-4.699 2.123-4.699 4.734v2.72a.5.5 0 0 0 .5.5h2.367a.5.5 0 0 0 .248 0h3.586v.507a.5.5 0 0 0 .5.5h3.1a.5.5 0 0 0 .28 0h8.202l-.29.508-.737 1.289c-.4.701-.152 1.609.545 2.016a.5.5 0 0 0 .002 0 1.474 1.474 0 0 0 2.008-.536l2.566-4.494.02.012a.5.5 0 0 0 .685-.183l.834-1.463a4.982 4.982 0 0 0 4.918-2.48c1.373-2.404.553-5.492-1.828-6.882a4.91 4.91 0 0 0-2.838-.66zm.069.996a3.946 3.946 0 0 1 2.273.533c1.912 1.116 2.565 3.572 1.459 5.508a3.962 3.962 0 0 1-5.451 1.48c-1.912-1.115-2.565-3.575-1.46-5.511a3.977 3.977 0 0 1 3.179-2.01zm-12.077 2.873h.998l-.367 5.334a.5.5 0 0 0 .158.399l1.21 1.132a.5.5 0 0 0 .683 0l1.207-1.132a.5.5 0 0 0 .158-.399l-.365-5.334h.996a4.978 4.978 0 0 1 1.934.39c.277.118.538.265.787.428a5.1 5.1 0 0 0 .941 3.313l-.851 1.494a.5.5 0 0 0 .177.678l-.384.672v-1.475a.5.5 0 0 0-.508-.506.5.5 0 0 0-.492.506v2.523a.5.5 0 0 0-.145-.02h-7.855v-2.503a.5.5 0 0 0-.508-.506.5.5 0 0 0-.492.506v2.504h-2.24v-3.022a4.95 4.95 0 0 1 4.958-4.982zm2 0h.678l.356 5.166-.694.648-.693-.648.353-5.166zm-9.96 1.045h3.48a5.969 5.969 0 0 0-1.479 3.938v2.013H9.492v-1.818a.5.5 0 0 0-.505-.508.5.5 0 0 0-.495.508v1.818H7v-2.219c0-2.078 1.643-3.732 3.7-3.732zm17.001 3.873h.002a4.978 4.978 0 0 0 1.696.998l-.436.764-1.701-.992.44-.772zm-.51 1.889.823.478-2.57 4.5c-.133.232-.4.303-.64.166a.476.476 0 0 1-.179-.654l.737-1.29.384-.671.451-.791.534-.934.46-.804z" color="#000" font-family="sans-serif" font-weight="400" overflow="visible"></path></g></svg>