<svg xmlns="http://www.w3.org/2000/svg" enable-background="new 0 0 512 512" viewBox="0 0 512 512" id="task"><linearGradient id="a" x1="27.614" x2="456.731" y1="484.386" y2="55.269" gradientUnits="userSpaceOnUse"><stop offset="0" stop-color="#fcc60e"></stop><stop offset="1" stop-color="#e92e29"></stop></linearGradient><path fill="url(#a)" d="M459.116,57.654L403.804,2.343c-1.5-1.5-3.535-2.343-5.657-2.343H112.068c-4.418,0-8,3.582-8,8v45.526H58.541
	c-4.418,0-8,3.582-8,8V504c0,4.418,3.582,8,8,8h341.391c4.418,0,8-3.582,8-8v-45.526h45.527c4.418,0,8-3.582,8-8V63.312
	C461.459,61.189,460.616,59.155,459.116,57.654z M406.147,27.313l27.998,27.998h-27.998V27.313z M66.541,496V69.526H336.62v47.313
	c0,4.418,3.582,8,8,8h47.312V496H66.541z M352.62,80.84l27.999,27.999H352.62V80.84z M407.932,442.474V116.839
	c0-2.122-0.843-4.156-2.343-5.657l-55.312-55.313c-1.5-1.5-3.535-2.343-5.657-2.343H120.068V16h270.079v47.312c0,4.418,3.582,8,8,8
	h47.312v371.162H407.932z M351.557,213.387c0,4.418-3.582,8-8,8H217.06c-4.418,0-8-3.582-8-8s3.582-8,8-8h126.497
	C347.975,205.387,351.557,208.969,351.557,213.387z M351.557,168.697c0,4.418-3.582,8-8,8H217.06c-4.418,0-8-3.582-8-8s3.582-8,8-8
	h126.497C347.975,160.697,351.557,164.279,351.557,168.697z M183.271,163.321c2.969,3.271,2.724,8.331-0.548,11.3l-44.223,40.133
	c-1.529,1.388-3.454,2.076-5.375,2.076c-2.052,0-4.1-0.785-5.658-2.343L109.26,196.28c-3.124-3.124-3.125-8.189,0-11.313
	c3.124-3.125,8.189-3.124,11.313-0.001l12.819,12.818l38.579-35.011C175.243,159.803,180.302,160.048,183.271,163.321z
	 M183.271,239.322c2.969,3.271,2.724,8.331-0.548,11.3l-44.223,40.133c-1.529,1.388-3.454,2.076-5.375,2.076
	c-2.052,0-4.1-0.785-5.658-2.343L109.26,272.28c-3.124-3.125-3.124-8.189,0-11.314c3.124-3.123,8.189-3.123,11.313,0l12.819,12.819
	l38.579-35.011C175.243,235.804,180.302,236.05,183.271,239.322z M183.271,315.322c2.969,3.271,2.724,8.331-0.548,11.3
	l-44.223,40.133c-1.529,1.388-3.454,2.076-5.375,2.076c-2.052,0-4.1-0.785-5.658-2.343l-18.208-18.207
	c-3.124-3.124-3.125-8.189,0-11.313c3.124-3.125,8.189-3.124,11.313-0.001l12.819,12.818l38.579-35.011
	C175.243,311.804,180.302,312.049,183.271,315.322z M183.271,391.322c2.969,3.271,2.724,8.331-0.548,11.3l-44.223,40.133
	c-1.529,1.388-3.454,2.076-5.375,2.076c-2.052,0-4.1-0.785-5.658-2.343l-18.208-18.207c-3.124-3.124-3.125-8.189,0-11.313
	c3.124-3.125,8.189-3.124,11.313-0.001l12.819,12.818l38.579-35.011C175.243,387.804,180.302,388.05,183.271,391.322z
	 M351.557,258.076c0,4.418-3.582,8-8,8H217.06c-4.418,0-8-3.582-8-8s3.582-8,8-8h126.497
	C347.975,250.076,351.557,253.658,351.557,258.076z M351.557,302.765c0,4.418-3.582,8-8,8H217.06c-4.418,0-8-3.582-8-8s3.582-8,8-8
	h126.497C347.975,294.765,351.557,298.347,351.557,302.765z M351.557,347.453c0,4.418-3.582,8-8,8H217.06c-4.418,0-8-3.582-8-8
	s3.582-8,8-8h126.497C347.975,339.453,351.557,343.035,351.557,347.453z M351.557,392.142c0,4.418-3.582,8-8,8H217.06
	c-4.418,0-8-3.582-8-8s3.582-8,8-8h126.497C347.975,384.142,351.557,387.724,351.557,392.142z M351.557,436.831c0,4.418-3.582,8-8,8
	H217.06c-4.418,0-8-3.582-8-8s3.582-8,8-8h126.497C347.975,428.831,351.557,432.413,351.557,436.831z M106.917,115.713
	c0-4.418,3.582-8,8-8h176.863c4.418,0,8,3.582,8,8s-3.582,8-8,8H114.917C110.498,123.713,106.917,120.131,106.917,115.713z"></path></svg>